<svg width="123" height="120" viewBox="0 0 123 120" fill="none" xmlns="http://www.w3.org/2000/svg">
<path fill-rule="evenodd" clip-rule="evenodd" d="M61.11 1.77C63.12 10.62 65.07 18.81 66.73 23.31C71.68 23.07 74.89 21.73 78.25 20.5C82.38 18.98 85.85 17.03 88.87 14.76C91.17 13.25 92.47 13.94 92.28 17.84C91.58 21.47 89.71 24.24 86.87 26.33C87.02 26.32 87.17 26.32 87.32 26.31C86.77 26.36 86.22 26.41 85.66 26.47C92.81 28.57 98.02 32.92 99.84 41.15C99.97 45.3 98.86 47.21 97.12 44.83C87.96 37.56 79.86 33.69 72.06 35.66C74.69 41.93 80.18 46.26 85.86 50.92C75.64 51.07 66.3 47.09 58.04 39.2C48.81 43.73 35.37 42.49 30.3 49.55C27.34 53.18 26.77 51.34 27.56 46.39C29.72 38.5 33.4 33.4 38.78 31.4C30.87 31.7 25.25 29.88 21.79 27.9C25.82 26.39 30.76 26.22 36.35 25.61L28.1 22.26C26.64 21.31 27.28 20.74 29.65 20.5C40.25 20.1 49.54 20.59 56.52 22.7C56.41 16.79 53.91 10.88 51.01 4.97L58.57 0L61.11 1.77Z" fill="#75AA00"/>
<path fill-rule="evenodd" clip-rule="evenodd" d="M84.77 26.27C91.66 28.3 96.69 32.49 98.44 40.43C98.57 44.43 98.01 46.02 96.33 43.72C87.5 36.71 79.17 33.24 71.64 35.14C74.17 41.19 79.21 45.92 84.69 50.42C74.83 50.56 66.09 46.16 58.12 38.55C49.22 42.92 36.26 41.72 31.36 48.54C28.5 52.04 27.95 50.27 28.72 45.49C30.8 37.88 34.35 32.96 39.54 31.03C31.02 31.35 25.39 30.19 22.18 27.79C17.82 29.25 14.45 31.2 12.11 33.67C12.06 33.72 12 33.78 11.94 33.83C8.66003 36.69 6.11003 39.97 4.23003 43.58C2.26003 47.37 1.04003 51.51 0.500027 55.87C-0.899973 67.09 1.57003 79.38 7.03003 90.03C12.24 100.18 20.13 108.81 29.96 113.51C36.07 116.44 42.94 118.35 50.65 119.05C58.43 119.75 67.06 119.22 76.66 117.27C83.79 115.81 90.09 113.56 95.6 110.63C101.35 107.57 106.21 103.79 110.23 99.46C116.08 93.15 120.1 85.49 121.9 76.79C123.64 68.4 123.32 59.02 120.62 48.89C119.93 46.57 119.11 44.44 118.19 42.47C117.26 40.52 116.24 38.76 115.11 37.19C111.54 32.23 106.88 29.02 101.28 27.34C96.47 25.91 90.93 25.6 84.77 26.27Z" fill="#F23329"/>
<path fill-rule="evenodd" clip-rule="evenodd" d="M37.22 32.14C37.95 31.69 38.73 31.32 39.54 31.01C38.78 31.04 38.04 31.06 37.32 31.06C37.27 31.45 37.24 31.81 37.22 32.14ZM10.1 35.53C7.68002 37.96 5.73002 40.66 4.22002 43.57C2.25002 47.36 1.03002 51.5 0.490022 55.86C-0.899978 67.09 1.57002 79.38 7.03002 90.03C12.24 100.18 20.13 108.81 29.96 113.51C36.07 116.44 42.94 118.35 50.65 119.05C58.43 119.75 67.06 119.22 76.66 117.27C83.79 115.81 90.09 113.56 95.6 110.63C101.35 107.57 106.21 103.79 110.23 99.46C114.9 94.42 118.41 88.52 120.55 81.91C94.68 130.11 -8.24998 114.51 10.1 35.53Z" fill="#D61D1D" stroke="#F60D11" stroke-width="0.216" stroke-miterlimit="2.6131"/>
<path fill-rule="evenodd" clip-rule="evenodd" d="M111.52 80.73C111.31 81.86 110.21 82.61 109.07 82.39C107.94 82.18 107.19 81.08 107.41 79.94C108.63 73.45 108.78 67.82 108.07 62.89C107.36 58.02 105.8 53.83 103.58 50.14C102.98 49.15 103.3 47.87 104.29 47.27C105.28 46.67 106.56 46.99 107.16 47.98C109.66 52.13 111.41 56.84 112.21 62.28C113 67.68 112.84 73.77 111.52 80.73Z" fill="#D61D1D"/>
</svg>
